<svg width="1200" height="500" viewBox="0 0 1200 500" fill="none" xmlns="http://www.w3.org/2000/svg">
  <style>
    .node{fill:#111217;stroke:#2a2f3a;stroke-width:2;rx:10;}
    .label{fill:#f5f7ff;font-family:Inter, sans-serif;font-size:16px}
    .line{stroke:#60a5fa;stroke-width:2}
  </style>
  <rect x="60" y="60" width="180" height="44" class="node"/>
  <text x="150" y="88" text-anchor="middle" class="label">Start</text>

  <rect x="270" y="60" width="220" height="44" class="node"/>
  <text x="380" y="88" text-anchor="middle" class="label">New Event</text>

  <rect x="530" y="60" width="220" height="44" class="node"/>
  <text x="640" y="88" text-anchor="middle" class="label">Details</text>

  <rect x="790" y="60" width="220" height="44" class="node"/>
  <text x="900" y="88" text-anchor="middle" class="label">Schedule</text>

  <rect x="270" y="160" width="220" height="44" class="node"/>
  <text x="380" y="188" text-anchor="middle" class="label">Tickets & Pricing</text>

  <rect x="530" y="160" width="220" height="44" class="node"/>
  <text x="640" y="188" text-anchor="middle" class="label">Review</text>

  <rect x="790" y="160" width="220" height="44" class="node"/>
  <text x="900" y="188" text-anchor="middle" class="label">Publish</text>

  <line x1="240" y1="82" x2="270" y2="82" class="line"/>
  <line x1="490" y1="82" x2="530" y2="82" class="line"/>
  <line x1="750" y1="82" x2="790" y2="82" class="line"/>
  <line x1="380" y1="104" x2="380" y2="160" class="line"/>
  <line x1="490" y1="182" x2="530" y2="182" class="line"/>
  <line x1="750" y1="182" x2="790" y2="182" class="line"/>
</svg>


